<mxfile host="app.diagrams.net" modified="2024-06-03T02:28:57.150Z" agent="Mozilla/5.0 (Windows NT 10.0; Win64; x64) AppleWebKit/537.36 (KHTML, like Gecko) Chrome/123.0.0.0 Safari/537.36 Edg/123.0.0.0" etag="RDmPRThsVI2lg9jx2jX1" version="24.4.13" type="github">
  <diagram name="第 1 页" id="ZzKzGzbMgNCC5ZsEGFMA">
    <mxGraphModel dx="1149" dy="681" grid="1" gridSize="10" guides="1" tooltips="1" connect="1" arrows="1" fold="1" page="1" pageScale="1" pageWidth="827" pageHeight="1169" math="0" shadow="0">
      <root>
        <mxCell id="0" />
        <mxCell id="1" parent="0" />
        <mxCell id="21Rt-DlmAEweIlOZY0aC-1" value="基于八叉树的临近搜索加速" style="swimlane;whiteSpace=wrap;html=1;rounded=1;labelBackgroundColor=none;fillColor=#A8DADC;strokeColor=#457B9D;fontColor=#1D3557;shadow=1;" vertex="1" parent="1">
          <mxGeometry x="490" y="60" width="210" height="485" as="geometry" />
        </mxCell>
        <mxCell id="21Rt-DlmAEweIlOZY0aC-2" value="" style="edgeStyle=orthogonalEdgeStyle;rounded=1;orthogonalLoop=1;jettySize=auto;html=1;labelBackgroundColor=none;fontColor=default;strokeColor=#457B9D;shadow=1;" edge="1" parent="21Rt-DlmAEweIlOZY0aC-1" source="21Rt-DlmAEweIlOZY0aC-3" target="21Rt-DlmAEweIlOZY0aC-5">
          <mxGeometry relative="1" as="geometry" />
        </mxCell>
        <mxCell id="21Rt-DlmAEweIlOZY0aC-3" value="计算八叉树尺寸" style="rounded=1;whiteSpace=wrap;html=1;labelBackgroundColor=none;fillColor=#A8DADC;strokeColor=#457B9D;fontColor=#1D3557;shadow=1;" vertex="1" parent="21Rt-DlmAEweIlOZY0aC-1">
          <mxGeometry x="55" y="60" width="100" height="50" as="geometry" />
        </mxCell>
        <mxCell id="21Rt-DlmAEweIlOZY0aC-4" value="" style="edgeStyle=orthogonalEdgeStyle;rounded=1;orthogonalLoop=1;jettySize=auto;html=1;labelBackgroundColor=none;fontColor=default;strokeColor=#457B9D;shadow=1;" edge="1" parent="21Rt-DlmAEweIlOZY0aC-1" source="21Rt-DlmAEweIlOZY0aC-5" target="21Rt-DlmAEweIlOZY0aC-7">
          <mxGeometry relative="1" as="geometry" />
        </mxCell>
        <mxCell id="21Rt-DlmAEweIlOZY0aC-5" value="建立八叉树根节点" style="rounded=1;whiteSpace=wrap;html=1;labelBackgroundColor=none;fillColor=#A8DADC;strokeColor=#457B9D;fontColor=#1D3557;shadow=1;" vertex="1" parent="21Rt-DlmAEweIlOZY0aC-1">
          <mxGeometry x="55" y="170" width="100" height="50" as="geometry" />
        </mxCell>
        <mxCell id="21Rt-DlmAEweIlOZY0aC-6" value="" style="edgeStyle=orthogonalEdgeStyle;rounded=1;orthogonalLoop=1;jettySize=auto;html=1;labelBackgroundColor=none;fontColor=default;strokeColor=#457B9D;shadow=1;" edge="1" parent="21Rt-DlmAEweIlOZY0aC-1" source="21Rt-DlmAEweIlOZY0aC-7" target="21Rt-DlmAEweIlOZY0aC-9">
          <mxGeometry relative="1" as="geometry" />
        </mxCell>
        <mxCell id="21Rt-DlmAEweIlOZY0aC-7" value="细分子节点" style="rounded=1;whiteSpace=wrap;html=1;labelBackgroundColor=none;fillColor=#A8DADC;strokeColor=#457B9D;fontColor=#1D3557;shadow=1;" vertex="1" parent="21Rt-DlmAEweIlOZY0aC-1">
          <mxGeometry x="55" y="280" width="100" height="50" as="geometry" />
        </mxCell>
        <mxCell id="21Rt-DlmAEweIlOZY0aC-8" style="edgeStyle=orthogonalEdgeStyle;rounded=1;orthogonalLoop=1;jettySize=auto;html=1;entryX=0.5;entryY=0;entryDx=0;entryDy=0;labelBackgroundColor=none;fontColor=default;strokeColor=#457B9D;shadow=1;" edge="1" parent="21Rt-DlmAEweIlOZY0aC-1" source="21Rt-DlmAEweIlOZY0aC-9" target="21Rt-DlmAEweIlOZY0aC-7">
          <mxGeometry relative="1" as="geometry">
            <Array as="points">
              <mxPoint x="30" y="398" />
              <mxPoint x="30" y="260" />
              <mxPoint x="105" y="260" />
            </Array>
          </mxGeometry>
        </mxCell>
        <mxCell id="21Rt-DlmAEweIlOZY0aC-9" value="满足最小条件" style="rhombus;whiteSpace=wrap;html=1;rounded=1;labelBackgroundColor=none;fillColor=#A8DADC;strokeColor=#457B9D;fontColor=#1D3557;shadow=1;" vertex="1" parent="21Rt-DlmAEweIlOZY0aC-1">
          <mxGeometry x="47.5" y="370" width="115" height="55" as="geometry" />
        </mxCell>
        <mxCell id="21Rt-DlmAEweIlOZY0aC-10" value="No" style="text;html=1;align=center;verticalAlign=middle;resizable=0;points=[];autosize=1;strokeColor=none;fillColor=none;rounded=1;labelBackgroundColor=none;fontColor=#1D3557;shadow=1;" vertex="1" parent="21Rt-DlmAEweIlOZY0aC-1">
          <mxGeometry x="30" y="370" width="40" height="30" as="geometry" />
        </mxCell>
        <mxCell id="21Rt-DlmAEweIlOZY0aC-11" value="基于OpenMP的并行加速" style="swimlane;whiteSpace=wrap;html=1;rounded=1;labelBackgroundColor=none;fillColor=#A8DADC;strokeColor=#457B9D;fontColor=#1D3557;shadow=1;" vertex="1" parent="1">
          <mxGeometry x="720" y="60" width="210" height="485" as="geometry" />
        </mxCell>
        <mxCell id="21Rt-DlmAEweIlOZY0aC-12" value="" style="edgeStyle=orthogonalEdgeStyle;rounded=0;orthogonalLoop=1;jettySize=auto;html=1;strokeColor=#457B9D;fontColor=#1D3557;fillColor=#A8DADC;shadow=1;" edge="1" parent="21Rt-DlmAEweIlOZY0aC-11" source="21Rt-DlmAEweIlOZY0aC-13" target="21Rt-DlmAEweIlOZY0aC-15">
          <mxGeometry relative="1" as="geometry" />
        </mxCell>
        <mxCell id="21Rt-DlmAEweIlOZY0aC-13" value="自适应设置线程" style="rounded=1;whiteSpace=wrap;html=1;labelBackgroundColor=none;fillColor=#A8DADC;strokeColor=#457B9D;fontColor=#1D3557;shadow=1;" vertex="1" parent="21Rt-DlmAEweIlOZY0aC-11">
          <mxGeometry x="55" y="55" width="100" height="50" as="geometry" />
        </mxCell>
        <mxCell id="21Rt-DlmAEweIlOZY0aC-14" value="" style="edgeStyle=orthogonalEdgeStyle;rounded=0;orthogonalLoop=1;jettySize=auto;html=1;strokeColor=#457B9D;fontColor=#1D3557;fillColor=#A8DADC;shadow=1;" edge="1" parent="21Rt-DlmAEweIlOZY0aC-11" source="21Rt-DlmAEweIlOZY0aC-15" target="21Rt-DlmAEweIlOZY0aC-17">
          <mxGeometry relative="1" as="geometry" />
        </mxCell>
        <mxCell id="21Rt-DlmAEweIlOZY0aC-15" value="分配叶节点" style="rounded=1;whiteSpace=wrap;html=1;labelBackgroundColor=none;fillColor=#A8DADC;strokeColor=#457B9D;fontColor=#1D3557;shadow=1;" vertex="1" parent="21Rt-DlmAEweIlOZY0aC-11">
          <mxGeometry x="55" y="165" width="100" height="50" as="geometry" />
        </mxCell>
        <mxCell id="21Rt-DlmAEweIlOZY0aC-16" value="" style="edgeStyle=orthogonalEdgeStyle;rounded=0;orthogonalLoop=1;jettySize=auto;html=1;strokeColor=#457B9D;fontColor=#1D3557;fillColor=#A8DADC;shadow=1;" edge="1" parent="21Rt-DlmAEweIlOZY0aC-11" source="21Rt-DlmAEweIlOZY0aC-17" target="21Rt-DlmAEweIlOZY0aC-18">
          <mxGeometry relative="1" as="geometry" />
        </mxCell>
        <mxCell id="21Rt-DlmAEweIlOZY0aC-17" value="创建并行线程" style="rounded=1;whiteSpace=wrap;html=1;labelBackgroundColor=none;fillColor=#A8DADC;strokeColor=#457B9D;fontColor=#1D3557;shadow=1;" vertex="1" parent="21Rt-DlmAEweIlOZY0aC-11">
          <mxGeometry x="55" y="265" width="100" height="50" as="geometry" />
        </mxCell>
        <mxCell id="21Rt-DlmAEweIlOZY0aC-18" value="获取节点面片" style="rounded=1;whiteSpace=wrap;html=1;labelBackgroundColor=none;fillColor=#A8DADC;strokeColor=#457B9D;fontColor=#1D3557;shadow=1;" vertex="1" parent="21Rt-DlmAEweIlOZY0aC-11">
          <mxGeometry x="55" y="365" width="100" height="50" as="geometry" />
        </mxCell>
        <mxCell id="21Rt-DlmAEweIlOZY0aC-19" value="临近特征检测" style="swimlane;whiteSpace=wrap;html=1;rounded=1;labelBackgroundColor=none;fillColor=#A8DADC;strokeColor=#457B9D;fontColor=#1D3557;shadow=1;" vertex="1" parent="1">
          <mxGeometry x="100" y="60" width="370" height="485" as="geometry" />
        </mxCell>
        <mxCell id="21Rt-DlmAEweIlOZY0aC-20" value="" style="edgeStyle=orthogonalEdgeStyle;rounded=0;orthogonalLoop=1;jettySize=auto;html=1;fontColor=default;labelBackgroundColor=none;strokeColor=#457B9D;shadow=1;" edge="1" parent="21Rt-DlmAEweIlOZY0aC-19" source="21Rt-DlmAEweIlOZY0aC-21" target="21Rt-DlmAEweIlOZY0aC-24">
          <mxGeometry relative="1" as="geometry" />
        </mxCell>
        <mxCell id="21Rt-DlmAEweIlOZY0aC-21" value="遍历不同面片组" style="rounded=1;whiteSpace=wrap;html=1;labelBackgroundColor=none;fillColor=#A8DADC;strokeColor=#457B9D;fontColor=#1D3557;glass=0;shadow=1;" vertex="1" parent="21Rt-DlmAEweIlOZY0aC-19">
          <mxGeometry x="45" y="42.5" width="100" height="50" as="geometry" />
        </mxCell>
        <mxCell id="21Rt-DlmAEweIlOZY0aC-22" value="" style="edgeStyle=orthogonalEdgeStyle;rounded=0;orthogonalLoop=1;jettySize=auto;html=1;labelBackgroundColor=none;strokeColor=#457B9D;fontColor=default;shadow=1;" edge="1" parent="21Rt-DlmAEweIlOZY0aC-19" source="21Rt-DlmAEweIlOZY0aC-24" target="21Rt-DlmAEweIlOZY0aC-27">
          <mxGeometry relative="1" as="geometry" />
        </mxCell>
        <mxCell id="21Rt-DlmAEweIlOZY0aC-23" style="edgeStyle=orthogonalEdgeStyle;rounded=0;orthogonalLoop=1;jettySize=auto;html=1;entryX=1;entryY=0.5;entryDx=0;entryDy=0;labelBackgroundColor=none;strokeColor=#457B9D;fontColor=default;shadow=1;" edge="1" parent="21Rt-DlmAEweIlOZY0aC-19" source="21Rt-DlmAEweIlOZY0aC-24" target="21Rt-DlmAEweIlOZY0aC-21">
          <mxGeometry relative="1" as="geometry">
            <Array as="points">
              <mxPoint x="170" y="155.5" />
              <mxPoint x="170" y="67.5" />
            </Array>
          </mxGeometry>
        </mxCell>
        <mxCell id="21Rt-DlmAEweIlOZY0aC-24" value="法向检测" style="rhombus;whiteSpace=wrap;html=1;rounded=1;labelBackgroundColor=none;fillColor=#A8DADC;strokeColor=#457B9D;fontColor=#1D3557;shadow=1;" vertex="1" parent="21Rt-DlmAEweIlOZY0aC-19">
          <mxGeometry x="37.5" y="127.5" width="115" height="55" as="geometry" />
        </mxCell>
        <mxCell id="21Rt-DlmAEweIlOZY0aC-25" value="" style="edgeStyle=orthogonalEdgeStyle;rounded=0;orthogonalLoop=1;jettySize=auto;html=1;labelBackgroundColor=none;strokeColor=#457B9D;fontColor=default;shadow=1;" edge="1" parent="21Rt-DlmAEweIlOZY0aC-19" source="21Rt-DlmAEweIlOZY0aC-27" target="21Rt-DlmAEweIlOZY0aC-30">
          <mxGeometry relative="1" as="geometry" />
        </mxCell>
        <mxCell id="21Rt-DlmAEweIlOZY0aC-26" style="edgeStyle=orthogonalEdgeStyle;rounded=0;orthogonalLoop=1;jettySize=auto;html=1;entryX=1;entryY=0.5;entryDx=0;entryDy=0;labelBackgroundColor=none;strokeColor=#457B9D;fontColor=default;shadow=1;" edge="1" parent="21Rt-DlmAEweIlOZY0aC-19" source="21Rt-DlmAEweIlOZY0aC-27" target="21Rt-DlmAEweIlOZY0aC-21">
          <mxGeometry relative="1" as="geometry">
            <Array as="points">
              <mxPoint x="170" y="240.5" />
              <mxPoint x="170" y="67.5" />
            </Array>
          </mxGeometry>
        </mxCell>
        <mxCell id="21Rt-DlmAEweIlOZY0aC-27" value="距离检测" style="rhombus;whiteSpace=wrap;html=1;rounded=1;labelBackgroundColor=none;fillColor=#A8DADC;strokeColor=#457B9D;fontColor=#1D3557;shadow=1;" vertex="1" parent="21Rt-DlmAEweIlOZY0aC-19">
          <mxGeometry x="37.5" y="212.5" width="115" height="55" as="geometry" />
        </mxCell>
        <mxCell id="21Rt-DlmAEweIlOZY0aC-28" value="" style="edgeStyle=orthogonalEdgeStyle;rounded=0;orthogonalLoop=1;jettySize=auto;html=1;labelBackgroundColor=none;strokeColor=#457B9D;fontColor=default;shadow=1;" edge="1" parent="21Rt-DlmAEweIlOZY0aC-19" source="21Rt-DlmAEweIlOZY0aC-30" target="21Rt-DlmAEweIlOZY0aC-32">
          <mxGeometry relative="1" as="geometry" />
        </mxCell>
        <mxCell id="21Rt-DlmAEweIlOZY0aC-29" style="edgeStyle=orthogonalEdgeStyle;rounded=0;orthogonalLoop=1;jettySize=auto;html=1;entryX=1;entryY=0.5;entryDx=0;entryDy=0;labelBackgroundColor=none;strokeColor=#457B9D;fontColor=default;shadow=1;" edge="1" parent="21Rt-DlmAEweIlOZY0aC-19" source="21Rt-DlmAEweIlOZY0aC-30" target="21Rt-DlmAEweIlOZY0aC-21">
          <mxGeometry relative="1" as="geometry">
            <Array as="points">
              <mxPoint x="170" y="330.5" />
              <mxPoint x="170" y="67.5" />
            </Array>
          </mxGeometry>
        </mxCell>
        <mxCell id="21Rt-DlmAEweIlOZY0aC-30" value="投影面相交" style="rhombus;whiteSpace=wrap;html=1;rounded=1;labelBackgroundColor=none;fillColor=#A8DADC;strokeColor=#457B9D;fontColor=#1D3557;shadow=1;" vertex="1" parent="21Rt-DlmAEweIlOZY0aC-19">
          <mxGeometry x="37.5" y="302.5" width="115" height="55" as="geometry" />
        </mxCell>
        <mxCell id="21Rt-DlmAEweIlOZY0aC-31" style="edgeStyle=orthogonalEdgeStyle;rounded=0;orthogonalLoop=1;jettySize=auto;html=1;entryX=0;entryY=0.5;entryDx=0;entryDy=0;labelBackgroundColor=none;strokeColor=#457B9D;fontColor=default;shadow=1;" edge="1" parent="21Rt-DlmAEweIlOZY0aC-19" source="21Rt-DlmAEweIlOZY0aC-32" target="21Rt-DlmAEweIlOZY0aC-21">
          <mxGeometry relative="1" as="geometry">
            <Array as="points">
              <mxPoint x="20" y="417.5" />
              <mxPoint x="20" y="67.5" />
            </Array>
          </mxGeometry>
        </mxCell>
        <mxCell id="21Rt-DlmAEweIlOZY0aC-32" value="记录接触面" style="rounded=1;whiteSpace=wrap;html=1;labelBackgroundColor=none;fillColor=#A8DADC;strokeColor=#457B9D;fontColor=#1D3557;shadow=1;" vertex="1" parent="21Rt-DlmAEweIlOZY0aC-19">
          <mxGeometry x="45" y="392.5" width="100" height="50" as="geometry" />
        </mxCell>
        <mxCell id="21Rt-DlmAEweIlOZY0aC-33" value="Yes" style="text;html=1;align=center;verticalAlign=middle;resizable=0;points=[];autosize=1;strokeColor=none;fillColor=none;fontColor=#1D3557;shadow=1;" vertex="1" parent="21Rt-DlmAEweIlOZY0aC-19">
          <mxGeometry x="87" y="177.5" width="40" height="30" as="geometry" />
        </mxCell>
        <mxCell id="21Rt-DlmAEweIlOZY0aC-34" value="Yes" style="text;html=1;align=center;verticalAlign=middle;resizable=0;points=[];autosize=1;strokeColor=none;fillColor=none;fontColor=#1D3557;shadow=1;" vertex="1" parent="21Rt-DlmAEweIlOZY0aC-19">
          <mxGeometry x="87" y="267.5" width="40" height="30" as="geometry" />
        </mxCell>
        <mxCell id="21Rt-DlmAEweIlOZY0aC-35" value="Yes" style="text;html=1;align=center;verticalAlign=middle;resizable=0;points=[];autosize=1;strokeColor=none;fillColor=none;fontColor=#1D3557;shadow=1;" vertex="1" parent="21Rt-DlmAEweIlOZY0aC-19">
          <mxGeometry x="87" y="357.5" width="40" height="30" as="geometry" />
        </mxCell>
        <mxCell id="21Rt-DlmAEweIlOZY0aC-36" value="No" style="text;html=1;align=center;verticalAlign=middle;resizable=0;points=[];autosize=1;strokeColor=none;fillColor=none;rounded=1;labelBackgroundColor=none;fontColor=#1D3557;shadow=1;" vertex="1" parent="21Rt-DlmAEweIlOZY0aC-19">
          <mxGeometry x="140" y="127.5" width="40" height="30" as="geometry" />
        </mxCell>
        <mxCell id="21Rt-DlmAEweIlOZY0aC-37" value="No" style="text;html=1;align=center;verticalAlign=middle;resizable=0;points=[];autosize=1;strokeColor=none;fillColor=none;rounded=1;labelBackgroundColor=none;fontColor=#1D3557;shadow=1;" vertex="1" parent="21Rt-DlmAEweIlOZY0aC-19">
          <mxGeometry x="140" y="212.5" width="40" height="30" as="geometry" />
        </mxCell>
        <mxCell id="21Rt-DlmAEweIlOZY0aC-38" value="No" style="text;html=1;align=center;verticalAlign=middle;resizable=0;points=[];autosize=1;strokeColor=none;fillColor=none;rounded=1;labelBackgroundColor=none;fontColor=#1D3557;shadow=1;" vertex="1" parent="21Rt-DlmAEweIlOZY0aC-19">
          <mxGeometry x="140" y="302.5" width="40" height="30" as="geometry" />
        </mxCell>
        <mxCell id="21Rt-DlmAEweIlOZY0aC-39" value="" style="endArrow=none;dashed=1;html=1;rounded=0;" edge="1" parent="21Rt-DlmAEweIlOZY0aC-19">
          <mxGeometry width="50" height="50" relative="1" as="geometry">
            <mxPoint x="190" y="480" as="sourcePoint" />
            <mxPoint x="190" y="30" as="targetPoint" />
          </mxGeometry>
        </mxCell>
        <mxCell id="21Rt-DlmAEweIlOZY0aC-40" style="edgeStyle=orthogonalEdgeStyle;rounded=0;orthogonalLoop=1;jettySize=auto;html=1;strokeColor=#457B9D;" edge="1" parent="21Rt-DlmAEweIlOZY0aC-19" source="21Rt-DlmAEweIlOZY0aC-41" target="21Rt-DlmAEweIlOZY0aC-44">
          <mxGeometry relative="1" as="geometry" />
        </mxCell>
        <mxCell id="21Rt-DlmAEweIlOZY0aC-41" value="遍历不同面片组" style="rounded=1;whiteSpace=wrap;html=1;labelBackgroundColor=none;fillColor=#A8DADC;strokeColor=#457B9D;fontColor=#1D3557;glass=0;shadow=1;" vertex="1" parent="21Rt-DlmAEweIlOZY0aC-19">
          <mxGeometry x="230" y="42.5" width="100" height="50" as="geometry" />
        </mxCell>
        <mxCell id="21Rt-DlmAEweIlOZY0aC-42" style="edgeStyle=orthogonalEdgeStyle;rounded=0;orthogonalLoop=1;jettySize=auto;html=1;entryX=0.5;entryY=0;entryDx=0;entryDy=0;strokeColor=#457B9D;" edge="1" parent="21Rt-DlmAEweIlOZY0aC-19" source="21Rt-DlmAEweIlOZY0aC-44" target="21Rt-DlmAEweIlOZY0aC-46">
          <mxGeometry relative="1" as="geometry" />
        </mxCell>
        <mxCell id="21Rt-DlmAEweIlOZY0aC-43" style="edgeStyle=orthogonalEdgeStyle;rounded=0;orthogonalLoop=1;jettySize=auto;html=1;entryX=1;entryY=0.5;entryDx=0;entryDy=0;strokeColor=#457B9D;" edge="1" parent="21Rt-DlmAEweIlOZY0aC-19" source="21Rt-DlmAEweIlOZY0aC-44" target="21Rt-DlmAEweIlOZY0aC-41">
          <mxGeometry relative="1" as="geometry">
            <Array as="points">
              <mxPoint x="350" y="240" />
              <mxPoint x="350" y="68" />
            </Array>
          </mxGeometry>
        </mxCell>
        <mxCell id="21Rt-DlmAEweIlOZY0aC-44" value="相交检测" style="rhombus;whiteSpace=wrap;html=1;rounded=1;labelBackgroundColor=none;fillColor=#A8DADC;strokeColor=#457B9D;fontColor=#1D3557;shadow=1;" vertex="1" parent="21Rt-DlmAEweIlOZY0aC-19">
          <mxGeometry x="222.5" y="212.5" width="115" height="55" as="geometry" />
        </mxCell>
        <mxCell id="21Rt-DlmAEweIlOZY0aC-45" style="edgeStyle=orthogonalEdgeStyle;rounded=0;orthogonalLoop=1;jettySize=auto;html=1;entryX=0;entryY=0.5;entryDx=0;entryDy=0;strokeColor=#457B9D;" edge="1" parent="21Rt-DlmAEweIlOZY0aC-19" source="21Rt-DlmAEweIlOZY0aC-46" target="21Rt-DlmAEweIlOZY0aC-41">
          <mxGeometry relative="1" as="geometry">
            <Array as="points">
              <mxPoint x="210" y="420" />
              <mxPoint x="210" y="68" />
            </Array>
          </mxGeometry>
        </mxCell>
        <mxCell id="21Rt-DlmAEweIlOZY0aC-46" value="记录自交面" style="rounded=1;whiteSpace=wrap;html=1;labelBackgroundColor=none;fillColor=#A8DADC;strokeColor=#457B9D;fontColor=#1D3557;shadow=1;" vertex="1" parent="21Rt-DlmAEweIlOZY0aC-19">
          <mxGeometry x="230" y="392.5" width="100" height="50" as="geometry" />
        </mxCell>
        <mxCell id="21Rt-DlmAEweIlOZY0aC-47" value="Yes" style="text;html=1;align=center;verticalAlign=middle;resizable=0;points=[];autosize=1;strokeColor=none;fillColor=none;fontColor=#1D3557;shadow=1;" vertex="1" parent="21Rt-DlmAEweIlOZY0aC-19">
          <mxGeometry x="280" y="290" width="40" height="30" as="geometry" />
        </mxCell>
        <mxCell id="21Rt-DlmAEweIlOZY0aC-48" value="No" style="text;html=1;align=center;verticalAlign=middle;resizable=0;points=[];autosize=1;strokeColor=none;fillColor=none;rounded=1;labelBackgroundColor=none;fontColor=#1D3557;shadow=1;" vertex="1" parent="21Rt-DlmAEweIlOZY0aC-19">
          <mxGeometry x="320" y="207.5" width="40" height="30" as="geometry" />
        </mxCell>
      </root>
    </mxGraphModel>
  </diagram>
</mxfile>
